<svg width="550" height="550" viewBox="0 0 550 550" fill="none" xmlns="http://www.w3.org/2000/svg">
<path d="M435 157V103C435 83.1178 418.882 67 399 67H151C131.118 67 115 83.1177 115 103V354.632C115 379.69 128.585 402.78 150.49 414.949L270.144 481.423C273.164 483.101 276.836 483.101 279.856 481.423L399.51 414.949C421.415 402.78 435 379.69 435 354.632V297C435 285.954 443.954 277 455 277C466.046 277 475 285.954 475 297V354.632C475 394.217 453.539 430.691 418.936 449.915L299.282 516.389C284.181 524.778 265.819 524.778 250.718 516.389L131.064 449.915C96.461 430.691 75 394.217 75 354.632V103C75 61.0264 109.026 27 151 27H399C440.974 27 475 61.0264 475 103V157C475 168.046 466.046 177 455 177C443.954 177 435 168.046 435 157Z" fill="#818CF8"/>
<path d="M210 227H340V174H210V227ZM380 340C380 351.046 371.046 360 360 360C348.954 360 340 351.046 340 340V267H210V340C210 351.046 201.046 360 190 360C178.954 360 170 351.046 170 340V155C170 143.402 179.402 134 191 134H359C370.598 134 380 143.402 380 155V340Z" fill="#818CF8"/>
</svg>
