<svg width="240" height="240" viewBox="0 70 240 170" fill="none" xmlns="http://www.w3.org/2000/svg">
  <rect x="1" y="1" width="238" height="238" fill="#FCFCF8" stroke="#CFCFC8" stroke-width="2"/>
  <ellipse cx="120" cy="196" rx="36" ry="8" fill="#E7E4D9"/>
  <g transform="translate(66 80)">
    <polygon points="31,22 45,8 77,8 93,22 87,36 39,36" fill="#6F7078"/>
    <polygon points="20,24 31,22 39,36 29,48 17,40" fill="#585962"/>
    <polygon points="77,8 93,22 90,44 78,36" fill="#4F5058"/>
    <polygon points="30,36 78,36 78,76 30,76" fill="#F2D9BF"/>
    <polygon points="30,36 54,36 54,76 30,76" fill="#F7E1C9"/>
    <polygon points="43,48 56,42 56,48 43,54" fill="#8C745C"/>
    <polygon points="63,42 75,48 63,54" fill="#8C745C"/>
    <circle cx="47" cy="57" r="3.5" fill="#3D2D22"/>
    <circle cx="69" cy="57" r="3.5" fill="#3D2D22"/>
    <polygon points="55,57 62,57 59,66" fill="#D1B49B"/>
    <polygon points="49,72 59,70 67,73 61,79 51,78" fill="#C58A7B"/>
    <polygon points="23,49 30,53 30,62 21,59" fill="#DFC3A8"/>
    <polygon points="78,53 86,49 87,59 78,62" fill="#DFC3A8"/>
    <polygon points="54,86 66,84 73,90 64,94 55,93 49,89" fill="#7F6672"/>
    <polygon points="49,94 69,96 69,118 50,122 39,103" fill="#E9D7B2"/>
    <polygon points="69,96 86,100 84,118 69,118" fill="#D9C494"/>
    <polygon points="39,76 50,93 42,109 26,98 23,81" fill="#E0C898"/>
    <polygon points="50,93 69,89 68,112 51,117 42,109" fill="#E9D7B2"/>
    <polygon points="26,98 42,109 39,132 27,131 18,109" fill="#8A7040"/>
    <polygon points="51,117 68,112 73,132 59,133 50,125" fill="#786035"/>
    <polygon points="27,131 39,132 35,141 23,141" fill="#3A3940"/>
    <polygon points="59,133 73,132 76,141 62,141" fill="#3A3940"/>
    <path d="M71 73L100 62" stroke="#D8C9A8" stroke-width="4" stroke-linecap="round"/>
    <rect x="94" y="56" width="24" height="14" rx="2" transform="rotate(-12 94 56)" fill="#8FD07B"/>
    <line x1="104" y1="57" x2="106" y2="69" stroke="#5A8B4C" stroke-width="2"/>
    <rect x="12" y="88" width="18" height="10" rx="2" transform="rotate(14 12 88)" fill="#8FD07B"/>
    <rect x="6" y="102" width="15" height="9" rx="2" transform="rotate(-18 6 102)" fill="#8FD07B"/>
  </g>
</svg>
