<svg width="240" height="240" viewBox="0 70 240 170" fill="none" xmlns="http://www.w3.org/2000/svg">
  <rect x="1" y="1" width="238" height="238" fill="#FCFCF8" stroke="#CFCFC8" stroke-width="2"/>
  <ellipse cx="120" cy="196" rx="36" ry="8" fill="#E7E4D9"/>
  <g transform="translate(66 78)">
    <polygon points="31,22 45,8 77,8 93,22 87,36 39,36" fill="#6F7078"/>
    <polygon points="20,24 31,22 39,36 29,48 17,40" fill="#585962"/>
    <polygon points="77,8 93,22 90,44 78,36" fill="#4F5058"/>
    <polygon points="30,36 78,36 78,76 30,76" fill="#F2D9BF"/>
    <polygon points="30,36 54,36 54,76 30,76" fill="#F7E1C9"/>
    <polygon points="43,51 55,45 55,51 43,56" fill="#8C745C"/>
    <polygon points="63,45 75,51 63,57" fill="#8C745C"/>
    <circle cx="47" cy="58" r="3.5" fill="#3D2D22"/>
    <circle cx="69" cy="58" r="3.5" fill="#3D2D22"/>
    <polygon points="55,58 62,58 59,67" fill="#D1B49B"/>
    <polygon points="49,73 58,70 66,71 60,78 51,77" fill="#BE8478"/>
    <polygon points="23,49 30,53 30,62 21,59" fill="#DFC3A8"/>
    <polygon points="78,53 86,49 87,59 78,62" fill="#DFC3A8"/>
    <polygon points="54,84 66,82 73,88 64,92 55,91 49,87" fill="#7F6672"/>
    <polygon points="49,92 69,94 69,116 50,120 39,101" fill="#D8B6C3"/>
    <polygon points="69,94 86,98 84,116 69,116" fill="#C79DAF"/>
    <polygon points="39,76 50,93 42,109 26,98 23,81" fill="#E5C9D2"/>
    <polygon points="50,93 69,89 68,112 51,117 42,109" fill="#DAB2C0"/>
    <polygon points="26,98 42,109 39,132 27,131 18,109" fill="#815565"/>
    <polygon points="51,117 68,112 73,132 59,133 50,125" fill="#704653"/>
    <polygon points="27,131 39,132 35,141 23,141" fill="#3A3940"/>
    <polygon points="59,133 73,132 76,141 62,141" fill="#3A3940"/>
    <path d="M10 150H26L32 138L39 158L47 144L54 150H72" stroke="#D95F66" stroke-width="4" stroke-linecap="round" stroke-linejoin="round"/>
    <path d="M86 14C94 8 102 18 95 25C88 31 80 22 86 14Z" fill="#EDE6D4" stroke="#B9B09E" stroke-width="2"/>
  </g>
</svg>
