<svg width="240" height="240" viewBox="0 70 240 170" fill="none" xmlns="http://www.w3.org/2000/svg">
  <rect x="1" y="1" width="238" height="238" fill="#FCFCF8" stroke="#CFCFC8" stroke-width="2"/>
  <ellipse cx="120" cy="196" rx="36" ry="8" fill="#E7E4D9"/>
  <g transform="translate(64 78)">
    <polygon points="31,22 45,8 77,8 93,22 87,36 39,36" fill="#6F7078"/>
    <polygon points="20,24 31,22 39,36 29,48 17,40" fill="#585962"/>
    <polygon points="77,8 93,22 90,44 78,36" fill="#4F5058"/>
    <polygon points="30,36 78,36 78,76 30,76" fill="#F2D9BF"/>
    <polygon points="30,36 54,36 54,76 30,76" fill="#F7E1C9"/>
    <polygon points="44,49 56,43 56,49 44,54" fill="#8C745C"/>
    <polygon points="63,43 75,48 63,53" fill="#8C745C"/>
    <circle cx="47" cy="57" r="3.4" fill="#3D2D22"/>
    <circle cx="69" cy="57" r="3.4" fill="#3D2D22"/>
    <polygon points="55,57 62,57 59,66" fill="#D1B49B"/>
    <polygon points="49,69 60,68 70,71 63,76 51,75" fill="#B67E73"/>
    <polygon points="23,49 30,53 30,62 21,59" fill="#DFC3A8"/>
    <polygon points="78,53 86,49 87,59 78,62" fill="#DFC3A8"/>
    <polygon points="54,84 66,82 73,88 64,92 55,91 49,87" fill="#7F6672"/>
    <polygon points="50,92 70,94 69,114 50,118 39,101" fill="#2C2B30"/>
    <polygon points="70,94 87,99 85,114 69,114" fill="#1F1E22"/>
    <polygon points="39,76 50,93 42,109 26,98 23,81" fill="#444246"/>
    <polygon points="50,93 69,89 68,112 51,117 42,109" fill="#555257"/>
    <polygon points="26,98 42,109 39,132 27,131 18,109" fill="#2C2B30"/>
    <polygon points="51,117 68,112 73,132 59,133 50,125" fill="#2C2B30"/>
    <polygon points="27,131 39,132 35,141 23,141" fill="#3A3940"/>
    <polygon points="59,133 73,132 76,141 62,141" fill="#3A3940"/>
    <rect x="8" y="74" width="18" height="24" rx="2" transform="rotate(-12 8 74)" fill="#FFF9F0" stroke="#B7B1A3" stroke-width="2"/>
    <circle cx="18" cy="84" r="3" fill="#D35555"/>
    <circle cx="12" cy="91" r="3" fill="#D35555"/>
    <circle cx="20" cy="95" r="3" fill="#D35555"/>
    <rect x="84" y="81" width="20" height="20" rx="4" transform="rotate(10 84 81)" fill="#F4F5F6" stroke="#B5BBC2" stroke-width="2"/>
    <circle cx="93" cy="90" r="2.5" fill="#333740"/>
    <circle cx="98" cy="97" r="2.5" fill="#333740"/>
    <path d="M66 74L83 87" stroke="#D8C9A8" stroke-width="4" stroke-linecap="round"/>
  </g>
</svg>
