<svg width="240" height="240" viewBox="0 70 240 170" fill="none" xmlns="http://www.w3.org/2000/svg">
  <rect x="1" y="1" width="238" height="238" fill="#FCFCF8" stroke="#CFCFC8" stroke-width="2"/>
  <ellipse cx="120" cy="196" rx="34" ry="8" fill="#E7E4D9"/>
  <g transform="translate(66 80)">
    <polygon points="31,22 45,8 77,8 93,22 87,36 39,36" fill="#6F7078"/>
    <polygon points="20,24 31,22 39,36 29,48 17,40" fill="#585962"/>
    <polygon points="77,8 93,22 90,44 78,36" fill="#4F5058"/>
    <polygon points="30,36 78,36 78,76 30,76" fill="#F2D9BF"/>
    <polygon points="30,36 54,36 54,76 30,76" fill="#F7E1C9"/>
    <polygon points="44,50 56,45 56,49 44,53" fill="#8C745C"/>
    <polygon points="63,45 75,47 63,52" fill="#8C745C"/>
    <circle cx="47" cy="56" r="3.4" fill="#3D2D22"/>
    <circle cx="69" cy="56" r="3.4" fill="#3D2D22"/>
    <polygon points="55,57 62,57 59,65" fill="#D1B49B"/>
    <polygon points="49,69 60,72 70,70 63,76 51,75" fill="#C88777"/>
    <polygon points="23,49 30,53 30,62 21,59" fill="#DFC3A8"/>
    <polygon points="78,53 86,49 87,59 78,62" fill="#DFC3A8"/>
    <polygon points="54,84 66,82 73,88 64,92 55,91 49,87" fill="#7A626E"/>
    <polygon points="49,92 69,94 67,116 49,120 39,101" fill="#7EC18D"/>
    <polygon points="69,94 86,98 84,116 67,116" fill="#66A874"/>
    <polygon points="39,76 49,94 41,110 25,98 23,82" fill="#72B681"/>
    <polygon points="49,94 67,90 67,112 50,117 41,110" fill="#84C492"/>
    <polygon points="25,98 41,110 38,132 27,131 19,111" fill="#51835B"/>
    <polygon points="50,117 67,112 71,132 58,133 49,126" fill="#4B7A54"/>
    <polygon points="27,131 38,132 34,140 23,140" fill="#3A3940"/>
    <polygon points="58,133 71,132 74,141 61,141" fill="#3A3940"/>
    <polygon points="77,68 92,63 102,71 101,83 87,88 74,79" fill="#FFF6E9" stroke="#B6B0A0" stroke-width="2"/>
    <polygon points="81,71 87,69 89,74 83,76" fill="#3A2B23"/>
    <polygon points="92,76 99,75 98,80 92,80" fill="#3A2B23"/>
    <polygon points="84,83 94,81 99,85 92,88 85,87" fill="#D08778"/>
    <path d="M58 60L80 70" stroke="#D8C9A8" stroke-width="4" stroke-linecap="round"/>
  </g>
</svg>
