<svg width="240" height="240" viewBox="0 70 240 170" fill="none" xmlns="http://www.w3.org/2000/svg">
  <rect x="1" y="1" width="238" height="238" fill="#FCFCF8" stroke="#CFCFC8" stroke-width="2"/>
  <ellipse cx="120" cy="196" rx="36" ry="8" fill="#E7E4D9"/>
  <g transform="translate(68 76)">
    <polygon points="31,22 45,8 77,8 93,22 87,36 39,36" fill="#79818B"/>
    <polygon points="20,24 31,22 39,36 29,48 17,40" fill="#676F78"/>
    <polygon points="77,8 93,22 90,44 78,36" fill="#58616A"/>
    <rect x="30" y="36" width="48" height="40" fill="#C3C9D0"/>
    <rect x="30" y="36" width="24" height="40" fill="#D4D9DE"/>
    <line x1="43" y1="56" x2="53" y2="56" stroke="#394049" stroke-width="4" stroke-linecap="round"/>
    <line x1="61" y1="56" x2="71" y2="56" stroke="#394049" stroke-width="4" stroke-linecap="round"/>
    <line x1="50" y1="67" x2="62" y2="67" stroke="#394049" stroke-width="4" stroke-linecap="round"/>
    <line x1="39" y1="8" x2="39" y2="0" stroke="#808892" stroke-width="4" stroke-linecap="round"/>
    <line x1="52" y1="8" x2="52" y2="-2" stroke="#808892" stroke-width="4" stroke-linecap="round"/>
    <line x1="65" y1="8" x2="65" y2="0" stroke="#808892" stroke-width="4" stroke-linecap="round"/>
    <polygon points="40,84 64,84 74,102 50,108 34,97" fill="#6177A9"/>
    <polygon points="64,84 84,89 82,108 74,102" fill="#506491"/>
    <polygon points="34,97 50,108 43,124 27,114 24,101" fill="#8397C4"/>
    <polygon points="50,108 74,102 72,124 53,130 43,124" fill="#7288BA"/>
    <polygon points="27,94 43,105 39,132 27,131 18,106" fill="#596B8E"/>
    <polygon points="53,112 72,106 77,132 63,133 52,123" fill="#4A5A78"/>
    <polygon points="27,131 39,132 35,141 23,141" fill="#3A3940"/>
    <polygon points="63,133 77,132 80,141 66,141" fill="#3A3940"/>
    <path d="M12 80H24" stroke="#8A919A" stroke-width="4" stroke-linecap="round"/>
    <path d="M80 80H94" stroke="#8A919A" stroke-width="4" stroke-linecap="round"/>
  </g>
</svg>
