<svg width="240" height="240" viewBox="0 70 240 170" fill="none" xmlns="http://www.w3.org/2000/svg">
  <rect x="1" y="1" width="238" height="238" fill="#FCFCF8" stroke="#CFCFC8" stroke-width="2"/>
  <ellipse cx="120" cy="196" rx="36" ry="8" fill="#E7E4D9"/>
  <g transform="translate(66 78)">
    <polygon points="31,22 45,8 77,8 93,22 87,36 39,36" fill="#6F7078"/>
    <polygon points="20,24 31,22 39,36 29,48 17,40" fill="#585962"/>
    <polygon points="77,8 93,22 90,44 78,36" fill="#4F5058"/>
    <polygon points="39,8 45,2 49,11 43,12" fill="#B9985A"/>
    <polygon points="74,7 80,3 79,13 73,12" fill="#B9985A"/>
    <polygon points="30,36 78,36 78,76 30,76" fill="#F2D9BF"/>
    <polygon points="30,36 54,36 54,76 30,76" fill="#F7E1C9"/>
    <polygon points="43,51 56,45 56,50 43,54" fill="#8C745C"/>
    <polygon points="63,45 75,48 63,52" fill="#8C745C"/>
    <circle cx="47" cy="57" r="3.5" fill="#3D2D22"/>
    <circle cx="69" cy="57" r="3.5" fill="#3D2D22"/>
    <polygon points="55,57 62,57 59,66" fill="#D1B49B"/>
    <polygon points="50,72 60,71 68,73 61,78 52,78" fill="#C78977"/>
    <polygon points="23,49 30,53 30,62 21,59" fill="#DFC3A8"/>
    <polygon points="78,53 86,49 87,59 78,62" fill="#DFC3A8"/>
    <polygon points="54,84 66,82 73,88 64,92 55,91 49,87" fill="#7F6672"/>
    <polygon points="49,92 69,94 69,116 50,120 39,101" fill="#A98553"/>
    <polygon points="69,94 86,98 84,116 69,116" fill="#8F6D42"/>
    <polygon points="39,76 50,93 42,109 26,98 23,81" fill="#C39D69"/>
    <polygon points="50,93 69,89 68,112 51,117 42,109" fill="#B78E5B"/>
    <polygon points="26,98 42,109 39,132 27,131 18,109" fill="#735532"/>
    <polygon points="51,117 68,112 73,132 59,133 50,125" fill="#61472A"/>
    <polygon points="27,131 39,132 35,141 23,141" fill="#3A3940"/>
    <polygon points="59,133 73,132 76,141 62,141" fill="#3A3940"/>
    <path d="M23 79L11 99" stroke="#9A8A6F" stroke-width="6" stroke-linecap="round"/>
    <path d="M84 78L95 99" stroke="#9A8A6F" stroke-width="6" stroke-linecap="round"/>
    <circle cx="18" cy="58" r="3" fill="#7DB0D7"/>
    <circle cx="10" cy="68" r="2.5" fill="#7DB0D7"/>
    <circle cx="92" cy="62" r="3" fill="#7DB0D7"/>
  </g>
</svg>
